<svg width="134.000000" height="66.000000" viewBox="0 0 134 66" fill="none" xmlns="http://www.w3.org/2000/svg" xmlns:xlink="http://www.w3.org/1999/xlink">
	<desc>
			Created with Pixso.
	</desc>
	<defs/>
	<path d="M41.8 18.22L41.8 21.07L44.12 21.07L44.15 30.84Q44.15 32.6 44.5 33.8Q44.82 34.83 45.49 35.53Q46.88 37.01 49.81 37.03L51.08 37.03L50.41 34.04L49.92 34.04Q49.53 34.04 49.14 33.97Q48.35 33.86 47.86 33.42Q47.1 32.72 47.1 31.2L47.1 21.11L49.35 21.11L49.35 18.22L47.1 18.22L47.1 12.14L44.12 12.14L44.12 18.22L41.8 18.22ZM32.16 19.56L32.16 22.44L34.48 22.44L34.48 37.03L37.44 37.03L37.44 22.44L39.83 22.44L39.83 19.56L37.44 19.59L37.44 17.52Q37.46 16.14 38.15 15.53Q38.64 15.1 39.48 15.06L40.14 15.06L40.81 12.21L39.51 12.21Q38.27 12.23 37.28 12.74Q36.44 13.16 35.78 13.93Q34.98 14.94 34.67 16.07Q34.48 16.77 34.48 17.52L34.48 19.56L32.16 19.56ZM1.44 12.42L1.44 37.03L14.66 37.03L14.66 34.01L4.5 34.01L4.5 12.42L1.44 12.42ZM52.66 12.42L52.66 37.03L55.72 37.03L55.72 26.13L58.88 26.13L58.88 23.15L55.72 23.15L55.72 12.42L52.66 12.42ZM60.64 23.15L60.64 26.13L63.77 26.13L63.77 37.03L66.86 37.03L66.86 12.42L63.77 12.42L63.77 23.15L60.64 23.15ZM102.28 20.75Q101.63 21.89 101.63 23.39Q101.63 24.09 101.77 24.73Q101.89 25.17 102.09 25.56Q102.88 27.09 105.01 27.93Q105.75 28.17 107.4 28.56Q108.94 28.95 109.65 29.16Q112.15 29.92 112.4 31.14Q112.43 31.27 112.43 31.41Q112.43 31.9 112.27 32.34Q112.08 32.86 111.65 33.31Q111.16 33.81 110.57 34.09Q109.84 34.43 108.94 34.43L108.94 37.21Q110.66 37.21 112.05 36.54Q112.31 36.41 112.57 36.26Q113.73 35.56 114.39 34.54Q115.27 33.19 115.27 31.27Q115.27 30.17 114.85 29.26Q114.8 29.16 114.75 29.05Q114.43 28.48 113.99 28.03Q112.99 27.04 111.34 26.7Q107.5 25.78 106.17 25.22Q104.66 24.62 104.45 23.71Q104.41 23.55 104.41 23.39Q104.41 23.21 104.44 23.04Q104.52 22.49 104.87 21.99Q105.3 21.33 105.9 21Q106.53 20.65 107.36 20.65L107.36 17.91Q105.96 17.91 104.55 18.65Q103 19.47 102.28 20.75ZM108.91 17.91L108.91 20.68Q109.44 20.68 110.07 20.93Q111.36 21.4 111.86 22.31Q112.18 22.89 112.18 23.64L114.96 23.18Q114.96 22.92 114.93 22.67Q114.77 21.36 113.8 20.16Q112.95 19.14 111.87 18.58Q110.56 17.91 108.91 17.91ZM16.62 23.15L16.62 31.83Q16.62 33.02 17.5 34.36Q18.37 35.65 19.58 36.32Q20.92 37.07 22.67 37.07L22.67 34.22Q22.04 34.22 21.49 34.01Q21.09 33.85 20.74 33.59Q19.92 32.96 19.66 32.16Q19.54 31.79 19.54 31.37L19.54 23.64Q19.54 23.11 19.79 22.58Q20.13 21.85 20.71 21.43Q21.48 20.86 22.67 20.86L22.67 18.01Q21.12 18.01 19.87 18.62Q18.9 19.08 18.1 19.91Q16.7 21.41 16.63 22.97Q16.62 23.06 16.62 23.15ZM24.18 34.22L24.18 37.07Q25.66 37.05 26.86 36.45Q27.79 35.99 28.54 35.17Q29.9 33.69 30.01 32.11Q30.02 31.97 30.02 31.83L30.02 23.15Q30.02 21.95 29.14 20.65Q28.3 19.39 27.13 18.73Q25.84 18.01 24.15 18.01L24.15 20.86Q24.86 20.86 25.46 21.12Q25.69 21.22 25.91 21.35Q26.57 21.81 26.87 22.44Q27.14 22.97 27.14 23.64L27.14 31.44Q27.14 31.97 26.85 32.53Q26.45 33.38 25.77 33.8Q25.11 34.22 24.18 34.22ZM69.6 23.15L69.6 31.83Q69.6 33.02 70.48 34.36Q71.35 35.65 72.56 36.32Q73.9 37.07 75.65 37.07L75.65 34.22Q75.02 34.22 74.47 34.01Q74.07 33.85 73.72 33.59Q72.9 32.96 72.64 32.16Q72.52 31.79 72.52 31.37L72.52 23.64Q72.52 23.11 72.77 22.58Q73.11 21.85 73.69 21.43Q74.46 20.86 75.65 20.86L75.65 18.01Q74.1 18.01 72.85 18.62Q71.88 19.08 71.08 19.91Q69.68 21.41 69.61 22.97Q69.6 23.06 69.6 23.15ZM77.16 34.22L77.16 37.07Q78.64 37.05 79.84 36.45Q80.77 35.99 81.52 35.17Q82.88 33.69 82.99 32.11Q83 31.97 83 31.83L83 23.15Q83 21.95 82.12 20.65Q81.28 19.39 80.11 18.73Q78.82 18.01 77.13 18.01L77.13 20.86Q77.84 20.86 78.44 21.12Q78.67 21.22 78.89 21.35Q79.55 21.81 79.86 22.44Q80.12 22.97 80.12 23.64L80.12 31.44Q80.12 31.97 79.83 32.53Q79.43 33.38 78.75 33.8Q78.09 34.22 77.16 34.22ZM117.35 23.11L117.35 31.83Q117.35 33.06 118.33 34.43Q119.23 35.71 120.47 36.36Q121.74 37.03 123.36 37.03L123.36 34.29Q123.09 34.29 122.83 34.25Q122.1 34.12 121.43 33.66Q120.42 32.9 120.31 32.04Q120.3 31.94 120.3 31.83L120.3 28.66L130.99 28.66L130.99 23.08Q130.98 22.69 130.9 22.32Q130.62 20.93 129.37 19.74Q128.22 18.69 126.88 18.28Q126 18.01 125.05 18.01L125.05 20.75Q125.21 20.75 125.38 20.77Q125.98 20.83 126.56 21.11Q127.53 21.55 127.91 22.29Q128.17 22.79 128.17 23.43L128.17 25.82L120.3 25.82L120.3 23.43Q120.3 22.9 120.69 22.27Q121.2 21.46 121.94 21.1Q122.55 20.79 123.32 20.79L123.32 18.01Q122.04 18.03 120.94 18.49Q119.82 18.97 118.89 19.91Q117.39 21.49 117.35 23.1L117.35 23.11ZM85.67 18.05L85.67 31.97Q85.67 33.24 86.58 34.57Q87.39 35.73 88.5 36.39Q89.9 37.21 91.79 37.21L91.79 34.25Q91.2 34.25 90.66 34.08Q90.28 33.95 89.92 33.73Q89.04 33.14 88.77 32.34Q88.66 32 88.66 31.62L88.66 18.05L85.67 18.05ZM93.33 34.25L93.33 37.21Q94.84 37.19 96.07 36.6Q97.08 36.11 97.91 35.24Q99.38 33.66 99.42 32.05Q99.42 32.01 99.42 31.97L99.42 18.05L96.43 18.05L96.43 31.62Q96.43 32.18 96.11 32.74Q95.74 33.37 95.2 33.74Q94.44 34.25 93.33 34.25ZM104.23 31.51L101.46 32.04Q101.46 32.31 101.49 32.57Q101.62 33.69 102.34 34.75Q102.92 35.61 103.72 36.16Q105.21 37.21 107.43 37.21L107.43 34.43Q106.69 34.4 105.89 34.01Q104.78 33.4 104.42 32.49Q104.23 32.04 104.23 31.51ZM125.05 34.25L125.05 37.03Q125.94 37.03 126.78 36.8Q127.48 36.61 128.14 36.26Q129.35 35.6 130.09 34.6Q130.73 33.73 131.02 32.6L128.53 31.69Q128.42 32.04 128.21 32.43Q127.68 33.34 126.89 33.8Q126.1 34.25 125.05 34.25Z" fill="#FFFFFF" fill-opacity="1.000000" fill-rule="evenodd"/>
	<path d="M48.76 53.16C49.07 52.93 49.24 52.62 49.25 52.24L48.75 52.24C48.72 52.47 48.58 52.66 48.35 52.82C48.13 52.96 47.84 53.03 47.5 53.03C47.32 53.03 47.15 53.01 47 52.97C46.84 52.92 46.71 52.86 46.6 52.79C46.49 52.72 46.4 52.64 46.34 52.54C46.27 52.44 46.24 52.34 46.24 52.24L45.72 52.24C45.74 52.62 45.9 52.93 46.2 53.16C46.52 53.39 46.94 53.5 47.49 53.5Q48.3 53.5 48.76 53.16ZM35.32 62.93C35.82 63.17 36.36 63.29 36.95 63.29Q37.59 63.29 38.17 63.09Q38.36 63.03 38.54 62.94C39.02 62.7 39.44 62.39 39.8 62C40.16 61.6 40.44 61.14 40.64 60.62C40.84 60.1 40.95 59.55 40.95 58.98C40.95 58.45 40.85 57.92 40.66 57.41C40.47 56.89 40.2 56.43 39.84 56.02C39.5 55.61 39.08 55.28 38.58 55.04C38.1 54.78 37.56 54.65 36.96 54.65C36.4 54.65 35.87 54.77 35.38 55.01C34.89 55.24 34.47 55.56 34.11 55.96C33.75 56.36 33.46 56.82 33.26 57.34C33.06 57.86 32.96 58.4 32.96 58.97Q32.96 59.26 32.99 59.54Q33.06 60.06 33.24 60.57C33.44 61.09 33.71 61.55 34.06 61.96C34.41 62.36 34.83 62.68 35.32 62.93ZM69.02 62.93C69.51 63.17 70.06 63.29 70.65 63.29Q71.29 63.29 71.87 63.09Q72.05 63.03 72.23 62.94C72.72 62.7 73.14 62.39 73.49 62C73.85 61.6 74.13 61.14 74.33 60.62C74.54 60.1 74.65 59.55 74.65 58.98Q74.65 58.71 74.61 58.43Q74.55 57.92 74.36 57.41C74.17 56.89 73.89 56.43 73.54 56.02C73.2 55.61 72.78 55.28 72.28 55.04C71.79 54.78 71.25 54.65 70.66 54.65Q70.06 54.65 69.51 54.83Q69.29 54.91 69.08 55.01C68.59 55.24 68.17 55.56 67.81 55.96C67.45 56.36 67.16 56.82 66.95 57.34C66.75 57.86 66.65 58.4 66.65 58.97Q66.65 59.26 66.69 59.54Q66.75 60.06 66.94 60.57C67.13 61.09 67.41 61.55 67.76 61.96C68.11 62.36 68.53 62.68 69.02 62.93ZM125.87 57.39C125.69 57.89 125.6 58.4 125.6 58.91Q125.6 59.1 125.62 59.29Q125.67 59.91 125.89 60.52C126.09 61.04 126.37 61.51 126.72 61.92Q126.9 62.13 127.1 62.31Q127.5 62.67 127.98 62.92C128.47 63.18 129 63.3 129.59 63.3C129.91 63.3 130.25 63.26 130.58 63.17C130.93 63.08 131.25 62.96 131.55 62.79C131.86 62.62 132.13 62.42 132.38 62.18C132.63 61.93 132.82 61.64 132.96 61.32L132.26 60.96Q132.06 61.38 131.76 61.68C131.56 61.88 131.34 62.04 131.1 62.18C130.87 62.3 130.62 62.4 130.37 62.46Q129.99 62.55 129.63 62.55Q129.15 62.55 128.71 62.4Q128.53 62.34 128.36 62.26C127.98 62.06 127.64 61.8 127.35 61.47Q126.93 60.96 126.68 60.32C126.52 59.88 126.44 59.43 126.44 58.96C126.44 58.53 126.51 58.1 126.65 57.69C126.78 57.26 126.98 56.88 127.25 56.55C127.52 56.21 127.85 55.94 128.24 55.73C128.63 55.52 129.09 55.42 129.6 55.42C129.83 55.42 130.07 55.45 130.31 55.5C130.55 55.55 130.78 55.64 131 55.76C131.23 55.88 131.43 56.03 131.63 56.22Q131.93 56.51 132.13 56.93L132.79 56.52C132.53 55.97 132.13 55.52 131.59 55.18C131.05 54.84 130.41 54.66 129.65 54.66C129.01 54.66 128.43 54.79 127.93 55.05C127.43 55.3 127 55.62 126.66 56.02Q126.52 56.18 126.4 56.35Q126.07 56.83 125.87 57.39ZM0.34 54.71L2.89 58.82L0.03 63.23L1 63.23L3.49 59.24L5.2 59.24L5.2 63.23L6.13 63.23L6.13 59.24L7.84 59.24L10.33 63.23L11.3 63.23L8.43 58.82L10.99 54.71L10.02 54.71L7.72 58.49L6.13 58.49L6.13 54.71L5.2 54.71L5.2 58.49L3.61 58.49L1.3 54.71L0.34 54.71ZM19.98 54.71L14.7 61.97L14.7 54.71L13.87 54.71L13.87 63.23L14.64 63.23L19.83 56.09L19.83 63.23L20.67 63.23L20.67 54.71L19.98 54.71ZM25.84 59.86Q26.06 58.66 26.21 56.97L26.33 55.46L29.06 55.46L29.06 63.23L29.89 63.23L29.89 54.71L25.56 54.71L25.38 56.9Q25.28 58.1 25.15 58.97C25.07 59.56 24.98 60.06 24.88 60.47C24.77 60.88 24.66 61.22 24.54 61.48C24.42 61.74 24.29 61.94 24.16 62.09C24.02 62.24 23.88 62.34 23.72 62.39C23.58 62.45 23.43 62.48 23.27 62.49L23.41 63.29C23.83 63.29 24.19 63.18 24.49 62.94C24.8 62.7 25.07 62.33 25.28 61.83Q25.62 61.06 25.84 59.86ZM50.09 54.71L44.81 61.97L44.81 54.71L43.98 54.71L43.98 63.23L44.75 63.23L49.95 56.09L49.95 63.23L50.79 63.23L50.79 54.71L50.09 54.71ZM61.02 58.49L59.73 58.49L59.73 54.71L58.9 54.71L58.9 63.23L59.73 63.23L59.73 59.24L61.09 59.24L64.12 63.23L65.08 63.23L61.78 58.82L64.77 54.71L63.81 54.71L61.02 58.49ZM85.22 56.24L85.22 63.23L86.06 63.23L86.06 54.71L85.21 54.71L81.86 60.54L78.53 54.71L77.67 54.71L77.67 63.23L78.51 63.23L78.51 56.24L81.62 61.65L82.11 61.65L85.22 56.24ZM96.26 54.71L89.68 54.71L89.68 63.23L90.51 63.23L90.51 55.46L95.42 55.46L95.42 63.23L96.26 63.23L96.26 54.71ZM101.41 59.86Q101.64 58.66 101.78 56.97L101.9 55.46L104.64 55.46L104.64 63.23L105.47 63.23L105.47 54.71L101.13 54.71L100.95 56.9C100.89 57.7 100.81 58.39 100.73 58.97C100.65 59.56 100.55 60.06 100.45 60.47C100.35 60.88 100.23 61.22 100.11 61.48C99.99 61.74 99.87 61.94 99.73 62.09C99.59 62.24 99.45 62.34 99.3 62.39C99.15 62.45 99 62.48 98.84 62.49L98.99 63.29C99.4 63.29 99.76 63.18 100.07 62.94C100.38 62.7 100.64 62.33 100.86 61.83C101.08 61.32 101.27 60.66 101.41 59.86ZM114.82 63.23L114.82 62.49L109.94 62.49L109.94 59.24L114.1 59.24L114.1 58.53L109.94 58.53L109.94 55.46L114.71 55.46L114.71 54.71L109.1 54.71L109.1 63.23L114.82 63.23ZM119.98 58.49L118.69 58.49L118.69 54.71L117.86 54.71L117.86 63.23L118.69 63.23L118.69 59.24L120.06 59.24L123.08 63.23L124.04 63.23L120.74 58.82L123.73 54.71L122.77 54.71L119.98 58.49ZM33.88 59.81Q33.8 59.4 33.8 58.97C33.8 58.53 33.87 58.1 34.01 57.68C34.16 57.25 34.38 56.87 34.65 56.54C34.92 56.2 35.25 55.93 35.64 55.73Q35.75 55.68 35.85 55.63Q36.36 55.42 36.95 55.42Q37.51 55.42 37.99 55.61Q38.11 55.66 38.22 55.72C38.61 55.91 38.94 56.17 39.22 56.5C39.5 56.83 39.72 57.21 39.87 57.64C40.03 58.06 40.11 58.51 40.11 58.97Q40.11 59.17 40.09 59.37Q40.04 59.82 39.88 60.27C39.74 60.69 39.53 61.07 39.26 61.41C38.98 61.74 38.65 62.02 38.26 62.22C37.87 62.43 37.43 62.54 36.95 62.54C36.48 62.54 36.05 62.44 35.67 62.25Q35.36 62.09 35.1 61.88Q34.87 61.69 34.67 61.46Q34.56 61.32 34.47 61.18Q34.19 60.79 34.02 60.32Q33.94 60.07 33.88 59.81ZM67.72 60.32C67.57 59.88 67.49 59.44 67.49 58.97Q67.49 58.75 67.52 58.53Q67.57 58.1 67.71 57.68C67.86 57.25 68.07 56.87 68.35 56.54C68.62 56.2 68.95 55.93 69.34 55.73C69.73 55.52 70.17 55.42 70.65 55.42C71.11 55.42 71.54 55.52 71.92 55.72Q72.19 55.85 72.43 56.04Q72.7 56.24 72.92 56.5C73.2 56.83 73.41 57.21 73.57 57.64C73.73 58.06 73.81 58.51 73.81 58.97C73.81 59.41 73.73 59.84 73.58 60.27Q73.41 60.76 73.12 61.18Q73.04 61.3 72.95 61.41Q72.82 61.58 72.66 61.72Q72.35 62.02 71.96 62.22C71.57 62.43 71.13 62.54 70.65 62.54Q69.99 62.54 69.45 62.29Q69.41 62.27 69.37 62.25C68.98 62.05 68.65 61.78 68.37 61.46C68.09 61.12 67.87 60.74 67.72 60.32Z" fill="#FFFFFF" fill-opacity="1.000000" fill-rule="evenodd"/>
</svg>
